# exported with NifSkope

mtllib apple.mtl

# apple01:0

g apple01:0
usemtl Material.000001

v 0.0024041496217250824 0.14021216332912445 5.7024412155151367
v 0.2467191219329834 -0.344938725233078 2.62198805809021
v -0.26151499152183533 0.37640476226806641 5.534639835357666
v 0.14252609014511108 -0.24813032150268555 2.6316447257995605
v -0.55177950859069824 0.073320120573043823 5.5035343170166016
v 0.028300650417804718 -0.35105085372924805 2.6876122951507568
v 0.2467191219329834 -0.344938725233078 2.62198805809021
v 0.0024041496217250824 0.14021216332912445 5.7024412155151367
v 0.11405226588249207 -0.48080283403396606 2.6889824867248535
v -0.33494177460670471 -0.22848175466060638 5.6734399795532227
v 0.028300650417804718 -0.35105085372924805 2.6876122951507568
v -0.55177950859069824 0.073320120573043823 5.5035343170166016
v -0.26151499152183533 0.37640476226806641 5.534639835357666
v 1.5877361297607422 -4.6452512741088867 1.5708310604095459
v -1.1671026945114136 -4.3456244468688965 -0.9817805290222168
v 1.6991480588912964 -4.4253792762756348 -1.0269534587860107
v -0.50588929653167725 -2.9900655746459961 -5.5867757797241211
v 1.1460883617401123 -3.0394477844238281 -5.5838232040405273
v 1.1737053394317627 -2.1045646667480469 -6.2964115142822266
v -0.27627196907997131 -2.4320459365844727 -6.0204310417175293
v 0.19350859522819519 -0.05069897323846817 -6.2132740020751953
v -1.2770675420761108 -4.5566043853759766 1.769894003868103
v 1.5123857259750366 -3.7823619842529297 3.319828987121582
v -0.7676471471786499 -3.7277054786682129 3.5468473434448242
v 1.7457053661346436 -2.5619721412658691 3.8530731201171875
v -0.59786933660507202 -2.9844083786010742 4.0208959579467773
v 0.0036280786152929068 -0.47885662317276001 2.8272292613983154
v -2.2862019538879395 -1.6822713613510132 4.3334207534790039
v -3.1472377777099609 -2.0637040138244629 3.8037528991699219
v -4.2033452987670898 -2.6419196128845215 2.0584971904754639
v -4.0323886871337891 -2.5533652305603027 -0.8706667423248291
v -2.4436068534851074 -1.4445909261703491 -5.5720171928405762
v -1.5766098499298096 -1.1470540761947632 -6.4243087768554688
v -2.8730125427246094 0.68147945404052734 -5.606935977935791
v -4.6219830513000488 0.82592451572418213 -0.87239456176757813
v -4.753046989440918 0.95972007513046265 2.0806539058685303
v -3.7202904224395752 0.7910194993019104 3.8695473670959473
v -2.8419103622436523 0.48500114679336548 4.5347061157226563
v 0.0036280786152929068 -0.47885662317276001 2.8272292613983154
v -1.456768274307251 2.2488927841186523 4.1756086349487305
v -2.9145634174346924 2.7703900337219238 3.6842582225799561
v -1.2786726951599121 3.7802591323852539 3.479942798614502
v -1.6902076005935669 4.6593332290649414 1.7136039733886719
v -3.6082608699798584 3.5590314865112305 1.8887839317321777
v -1.6399092674255371 4.3492732048034668 -0.89092612266540527
v -3.4651899337768555 3.2383770942687988 -0.89060449600219727
v -0.85857999324798584 3.1760201454162598 -5.6334939002990723
v -2.129863977432251 2.2441339492797852 -5.6328601837158203
v -1.8578150272369385 0.57698756456375122 -6.4973688125610352
v 0.19350859522819519 -0.05069897323846817 -6.2132740020751953
v -0.93781518936157227 1.9286061525344849 -6.4123497009277344
v 2.2582018375396729 -2.0527443885803223 -5.5599923133850098
v 3.6581439971923828 -3.2046961784362793 -1.0276634693145752
v 3.5882418155670166 -3.3590264320373535 1.5532734394073486
v 3.0950882434844971 -2.6247215270996094 3.2093238830566406
v 0.19350859522819519 -0.05069897323846817 -6.2132740020751953
v 1.9484806060791016 -0.24570252001285553 -6.5179452896118164
v 3.1166045665740967 -0.26289117336273193 -5.6434602737426758
v 4.501589298248291 -0.64341062307357788 -1.0152008533477783
v 4.7689480781555176 -0.66681933403015137 1.4437491893768311
v 3.7709228992462158 -0.49231430888175964 3.1060919761657715
v 3.153731107711792 -0.53362292051315308 3.9125485420227051
v 0.0036280786152929068 -0.47885662317276001 2.8272292613983154
v 3.9484407901763916 2.7173213958740234 -0.99264359474182129
v 1.110226035118103 4.6627368927001953 1.6422756910324097
v 3.9974675178527832 2.8957819938659668 1.6185147762298584
v 0.97250652313232422 3.7803874015808105 3.3404672145843506
v 3.3335323333740234 2.367063045501709 3.31522536277771
v 0.73817521333694458 2.4482464790344238 3.8591635227203369
v 2.556826114654541 1.5715363025665283 4.0539131164550781
v 0.0036280786152929068 -0.47885662317276001 2.8272292613983154
v 2.4651758670806885 1.7626522779464722 -5.6405410766601563
v 1.5697923898696899 1.189769983291626 -6.6445589065551758
v 0.99907422065734863 4.3463840484619141 -0.8960869312286377
v 0.732715904712677 3.2050199508666992 -5.628838062286377
v 0.61684775352478027 2.2924385070800781 -6.5055341720581055
v 0.19350859522819519 -0.05069897323846817 -6.2132740020751953
v -0.93781518936157227 1.9286061525344849 -6.4123497009277344
v -0.85857999324798584 3.1760201454162598 -5.6334939002990723
v -1.6399092674255371 4.3492732048034668 -0.89092612266540527
v -1.6902076005935669 4.6593332290649414 1.7136039733886719
v -1.2786726951599121 3.7802591323852539 3.479942798614502
v -1.456768274307251 2.2488927841186523 4.1756086349487305
v 0.0036280786152929068 -0.47885662317276001 2.8272292613983154
vt 0.74659490585327148 0.93618470430374146
vt 0.87745267152786255 0.93752706050872803
vt 0.74684101343154907 0.96742963790893555
vt 0.87705469131469727 0.96475642919540405
vt 0.74647271633148193 0.98889434337615967
vt 0.87663149833679199 0.9887852668762207
vt 0.87671637535095215 0.93552666902542114
vt 0.74576902389526367 0.93514376878738403
vt 0.87696480751037598 0.95827597379684448
vt 0.74548190832138062 0.95529741048812866
vt 0.87742710113525391 0.98478049039840698
vt 0.74589747190475464 0.9851841926574707
vt 0.7374495267868042 0.94751077890396118
vt 0.49624577164649963 0.63549160957336426
vt 0.40876331925392151 0.48032879829406738
vt 0.50204402208328247 0.48075675964355469
vt 0.41910487413406372 0.30754131078720093
vt 0.5079001784324646 0.31650161743164063
vt 0.53852438926696777 0.21604752540588379
vt 0.42444849014282227 0.21044343709945679
vt 0.44114243984222412 0.09515148401260376
vt 0.40536054968833923 0.63754022121429443
vt 0.50224024057388306 0.72716963291168213
vt 0.41581970453262329 0.73417371511459351
vt 0.53698229789733887 0.7941211462020874
vt 0.41440367698669434 0.79217970371246338
vt 0.39716985821723938 0.92835056781768799
vt 0.30415934324264526 0.80061471462249756
vt 0.29994696378707886 0.72936195135116577
vt 0.29420769214630127 0.62641596794128418
vt 0.2962760329246521 0.48084694147109985
vt 0.2975199818611145 0.32100838422775269
vt 0.30214649438858032 0.21909409761428833
vt 0.18605616688728333 0.31197315454483032
vt 0.18849101662635803 0.47921943664550781
vt 0.18645575642585754 0.63436233997344971
vt 0.18827471137046814 0.74243658781051636
vt 0.18939745426177979 0.80376130342483521
vt 0.19933915138244629 0.92241775989532471
vt 0.046819534152746201 0.81765568256378174
vt 0.087907277047634125 0.74071031808853149
vt 0.00020158628467470407 0.73717194795608521
vt 0.00020281726028770208 0.63512665033340454
vt 0.08049628883600235 0.63515090942382813
vt 0.00020453834440559149 0.48651564121246338
vt 0.081974409520626068 0.48637187480926514
vt 0.00019607122521847486 0.31203198432922363
vt 0.088677451014518738 0.31221169233322144
vt 0.18633681535720825 0.2042052149772644
vt 0.15803129971027374 0.12057369947433472
vt 0.047466717660427094 0.20420897006988525
vt 0.5776745080947876 0.31673276424407959
vt 0.57434988021850586 0.48071014881134033
vt 0.56872135400772095 0.63916265964508057
vt 0.57368093729019165 0.73246884346008301
vt 0.63643133640289307 0.11364036798477173
vt 0.66023671627044678 0.20250231027603149
vt 0.66767615079879761 0.31710594892501831
vt 0.66637599468231201 0.47950482368469238
vt 0.6660800576210022 0.64055603742599487
vt 0.66429674625396729 0.73898178339004517
vt 0.66032320261001587 0.80906671285629272
vt 0.5804409384727478 0.92234164476394653
vt 0.7921760082244873 0.48069298267364502
vt 0.91984236240386963 0.63554555177688599
vt 0.7954484224319458 0.64643311500549316
vt 0.91681212186813354 0.74203842878341675
vt 0.79068660736083984 0.74559885263442993
vt 0.91433042287826538 0.82263106107711792
vt 0.7826465368270874 0.81952059268951416
vt 0.78324097394943237 0.92234164476394653
vt 0.7840726375579834 0.30424618721008301
vt 0.77709245681762695 0.18723165988922119
vt 0.92112827301025391 0.48694419860839844
vt 0.91544747352600098 0.31200563907623291
vt 0.90684068202972412 0.2042696475982666
vt 0.88487577438354492 0.10670703649520874
vt 0.99940192699432373 0.20431673526763916
vt 0.99945008754730225 0.31203198432922363
vt 0.99950337409973145 0.48651564121246338
vt 0.99949264526367188 0.63512665033340454
vt 0.99948489665985107 0.73717194795608521
vt 1.0002691745758057 0.81457358598709106
vt 0.9995499849319458 0.92257058620452881
vn 0.65979015827178955 0.1629415899515152 0.73357141017913818
vn 0.99486690759658813 0.077064789831638336 0.0655813068151474
vn -0.12303519994020462 0.92738163471221924 0.35330665111541748
vn 0.16100917756557465 0.96876388788223267 -0.18860693275928497
vn -0.94083309173583984 0.13792043924331665 0.3095335066318512
vn -0.97280478477478027 0.098310865461826324 -0.20972809195518494
vn 0.99486690759658813 0.077064789831638336 0.0655813068151474
vn 0.65979015827178955 0.1629415899515152 0.73357141017913818
vn 0.12543538212776184 -0.98730629682540894 0.097428150475025177
vn -0.18001654744148254 -0.71008706092834473 0.68071317672729492
vn -0.97280478477478027 0.098310865461826324 -0.20972809195518494
vn -0.94083309173583984 0.13792043924331665 0.3095335066318512
vn -0.12303519994020462 0.92738163471221924 0.35330665111541748
vn 0.26500013470649719 -0.94635999202728271 0.18487197160720825
vn -0.29717695713043213 -0.93255877494812012 -0.2049877792596817
vn 0.26626259088516235 -0.94592541456222534 -0.18528181314468384
vn -0.27270334959030151 -0.78973358869552612 -0.5495031476020813
vn 0.25728157162666321 -0.79284697771072388 -0.55244898796081543
vn 0.16944588720798492 -0.35569256544113159 -0.91911417245864868
vn -0.095634303987026215 -0.42129626870155334 -0.90186667442321777
vn -0.041143845766782761 -0.073153495788574219 -0.99647164344787598
vn -0.28551945090293884 -0.93858695030212402 0.19373492896556854
vn 0.2636370062828064 -0.70293676853179932 0.6605871319770813
vn -0.14457374811172485 -0.7291218638420105 0.66893929243087769
vn 0.14711716771125793 -0.12772221863269806 0.98083817958831787
vn 0.052372381091117859 -0.20645327866077423 0.97705382108688354
vn 0.092227816581726074 0.030798180028796196 0.995261549949646
vn -0.039946090430021286 -0.15822525322437286 0.98659467697143555
vn -0.57684403657913208 -0.40931627154350281 0.70690250396728516
vn -0.81152462959289551 -0.52709561586380005 0.25218647718429565
vn -0.81188452243804932 -0.54205548763275146 -0.21683953702449799
vn -0.71950173377990723 -0.44313633441925049 -0.53474050760269165
vn -0.27938631176948547 -0.26481065154075623 -0.92294019460678101
vn -0.83049803972244263 0.099636673927307129 -0.54803788661956787
vn -0.97146481275558472 0.13098300993442535 -0.19773615896701813
vn -0.96259713172912598 0.13650205731391907 0.23403835296630859
vn -0.74374151229858398 0.089489258825778961 0.66245019435882568
vn -0.17210040986537933 -0.01576567254960537 0.98495322465896606
vn 0.092227816581726074 0.030798180028796196 0.995261549949646
vn 0.074665956199169159 0.14387032389640808 0.98677569627761841
vn -0.49199774861335754 0.50732409954071045 0.70750302076339722
vn -0.12883642315864563 0.6984676718711853 0.70394891500473022
vn -0.25129774212837219 0.95207345485687256 0.17437188327312469
vn -0.71596181392669678 0.6692470908164978 0.19876371324062347
vn -0.27086839079856873 0.94263136386871338 -0.19513173401355743
vn -0.7359655499458313 0.64372849464416504 -0.20968630909919739
vn -0.23527063429355621 0.78945964574813843 -0.56692254543304443
vn -0.63348561525344849 0.52821189165115356 -0.56540977954864502
vn -0.34365379810333252 0.0552397221326828 -0.93747031688690186
vn -0.041143845766782761 -0.073153495788574219 -0.99647164344787598
vn -0.17799766361713409 0.29152420163154602 -0.93985664844512939
vn 0.66447490453720093 -0.48902815580368042 -0.56508815288543701
vn 0.7788129448890686 -0.60379958152770996 -0.16993086040019989
vn 0.74363201856613159 -0.63589245080947876 0.20652402937412262
vn 0.61338812112808228 -0.40272769331932068 0.67938601970672607
vn -0.041143845766782761 -0.073153495788574219 -0.99647164344787598
vn 0.31529077887535095 -0.090956591069698334 -0.94462615251541138
vn 0.818642258644104 -0.061057120561599731 -0.57104891538619995
vn 0.98049342632293701 -0.084488682448863983 -0.17746627330780029
vn 0.97918069362640381 -0.098285607993602753 0.17760959267616272
vn 0.79658257961273193 -0.084079474210739136 0.59865421056747437
vn 0.4195418655872345 -0.1418372243642807 0.89658617973327637
vn 0.092227816581726074 0.030798180028796196 0.995261549949646
vn 0.80412667989730835 0.56162780523300171 -0.19481916725635529
vn 0.2613447904586792 0.9504925012588501 0.16811579465866089
vn 0.80228680372238159 0.56653863191604614 0.18806865811347961
vn 0.2205737829208374 0.6712796688079834 0.70762336254119873
vn 0.62398648262023926 0.43150690197944641 0.65149259567260742
vn 0.076430283486843109 0.086880944669246674 0.9932824969291687
vn 0.20292507112026215 0.12963403761386871 0.97057533264160156
vn 0.092227816581726074 0.030798180028796196 0.995261549949646
vn 0.70132327079772949 0.48370978236198425 -0.52361291646957397
vn 0.27459821105003357 0.14574101567268372 -0.95045006275177002
vn 0.25148281455039978 0.94743746519088745 -0.19778421521186829
vn 0.26546686887741089 0.82592952251434326 -0.49736085534095764
vn 0.079077109694480896 0.42141956090927124 -0.90341150760650635
vn -0.041143845766782761 -0.073153495788574219 -0.99647164344787598
vn -0.17799766361713409 0.29152420163154602 -0.93985664844512939
vn -0.23527063429355621 0.78945964574813843 -0.56692254543304443
vn -0.27086839079856873 0.94263136386871338 -0.19513173401355743
vn -0.25129774212837219 0.95207345485687256 0.17437188327312469
vn -0.12883642315864563 0.6984676718711853 0.70394891500473022
vn 0.074665956199169159 0.14387032389640808 0.98677569627761841
vn 0.092227816581726074 0.030798180028796196 0.995261549949646
f 1/1/1 2/2/2 3/3/3
f 2/2/2 4/4/4 3/3/3
f 3/3/3 4/4/4 5/5/5
f 4/4/4 6/6/6 5/5/5
f 7/7/7 8/8/8 9/9/9
f 8/8/8 10/10/10 9/9/9
f 9/9/9 10/10/10 11/11/11
f 11/11/11 10/10/10 12/12/12
f 10/10/10 8/8/8 12/12/12
f 12/12/12 8/8/8 13/13/13
f 14/14/14 15/15/15 16/16/16
f 15/15/15 17/17/17 16/16/16
f 16/16/16 17/17/17 18/18/18
f 18/18/18 17/17/17 19/19/19
f 17/17/17 20/20/20 19/19/19
f 19/19/19 20/20/20 21/21/21
f 15/15/15 14/14/14 22/22/22
f 14/14/14 23/23/23 22/22/22
f 22/22/22 23/23/23 24/24/24
f 23/23/23 25/25/25 24/24/24
f 24/24/24 25/25/25 26/26/26
f 25/25/25 27/27/27 26/26/26
f 27/27/27 28/28/28 26/26/26
f 28/28/28 29/29/29 26/26/26
f 26/26/26 29/29/29 24/24/24
f 29/29/29 30/30/30 24/24/24
f 24/24/24 30/30/30 22/22/22
f 30/30/30 31/31/31 22/22/22
f 22/22/22 31/31/31 15/15/15
f 31/31/31 32/32/32 15/15/15
f 15/15/15 32/32/32 17/17/17
f 32/32/32 33/33/33 17/17/17
f 17/17/17 33/33/33 20/20/20
f 33/33/33 21/21/21 20/20/20
f 33/33/33 32/32/32 34/34/34
f 32/32/32 31/31/31 34/34/34
f 34/34/34 31/31/31 35/35/35
f 31/31/31 30/30/30 35/35/35
f 35/35/35 30/30/30 36/36/36
f 30/30/30 29/29/29 36/36/36
f 36/36/36 29/29/29 37/37/37
f 29/29/29 28/28/28 37/37/37
f 37/37/37 28/28/28 38/38/38
f 28/28/28 39/39/39 38/38/38
f 39/39/39 40/40/40 38/38/38
f 38/38/38 40/40/40 41/41/41
f 40/40/40 42/42/42 41/41/41
f 42/42/42 43/43/43 41/41/41
f 41/41/41 43/43/43 44/44/44
f 43/43/43 45/45/45 44/44/44
f 44/44/44 45/45/45 46/46/46
f 45/45/45 47/47/47 46/46/46
f 38/38/38 41/41/41 37/37/37
f 41/41/41 44/44/44 37/37/37
f 37/37/37 44/44/44 36/36/36
f 44/44/44 46/46/46 36/36/36
f 36/36/36 46/46/46 35/35/35
f 46/46/46 48/48/48 35/35/35
f 35/35/35 48/48/48 34/34/34
f 48/48/48 49/49/49 34/34/34
f 34/34/34 49/49/49 33/33/33
f 33/33/33 49/49/49 50/50/50
f 50/50/50 49/49/49 51/51/51
f 49/49/49 48/48/48 51/51/51
f 51/51/51 48/48/48 47/47/47
f 48/48/48 46/46/46 47/47/47
f 19/19/19 52/52/52 18/18/18
f 52/52/52 53/53/53 18/18/18
f 18/18/18 53/53/53 16/16/16
f 53/53/53 54/54/54 16/16/16
f 16/16/16 54/54/54 14/14/14
f 54/54/54 55/55/55 14/14/14
f 14/14/14 55/55/55 23/23/23
f 55/55/55 25/25/25 23/23/23
f 56/56/56 57/57/57 19/19/19
f 57/57/57 58/58/58 19/19/19
f 19/19/19 58/58/58 52/52/52
f 52/52/52 58/58/58 53/53/53
f 58/58/58 59/59/59 53/53/53
f 53/53/53 59/59/59 54/54/54
f 59/59/59 60/60/60 54/54/54
f 54/54/54 60/60/60 55/55/55
f 60/60/60 61/61/61 55/55/55
f 55/55/55 61/61/61 25/25/25
f 61/61/61 62/62/62 25/25/25
f 25/25/25 62/62/62 63/63/63
f 64/64/64 65/65/65 66/66/66
f 65/65/65 67/67/67 66/66/66
f 66/66/66 67/67/67 68/68/68
f 67/67/67 69/69/69 68/68/68
f 68/68/68 69/69/69 70/70/70
f 69/69/69 71/71/71 70/70/70
f 71/71/71 62/62/62 70/70/70
f 62/62/62 61/61/61 70/70/70
f 70/70/70 61/61/61 68/68/68
f 61/61/61 60/60/60 68/68/68
f 68/68/68 60/60/60 66/66/66
f 60/60/60 59/59/59 66/66/66
f 66/66/66 59/59/59 64/64/64
f 59/59/59 58/58/58 64/64/64
f 64/64/64 58/58/58 72/72/72
f 58/58/58 57/57/57 72/72/72
f 72/72/72 57/57/57 73/73/73
f 57/57/57 56/56/56 73/73/73
f 65/65/65 64/64/64 74/74/74
f 64/64/64 72/72/72 74/74/74
f 74/74/74 72/72/72 75/75/75
f 75/75/75 72/72/72 76/76/76
f 72/72/72 73/73/73 76/76/76
f 73/73/73 77/77/77 76/76/76
f 77/77/77 78/78/78 76/76/76
f 76/76/76 78/78/78 75/75/75
f 78/78/78 79/79/79 75/75/75
f 79/79/79 80/80/80 75/75/75
f 75/75/75 80/80/80 74/74/74
f 80/80/80 81/81/81 74/74/74
f 74/74/74 81/81/81 65/65/65
f 81/81/81 82/82/82 65/65/65
f 65/65/65 82/82/82 67/67/67
f 82/82/82 83/83/83 67/67/67
f 67/67/67 83/83/83 69/69/69
f 83/83/83 84/84/84 69/69/69
