# exported with NifSkope

mtllib Book.mtl

# BookGeneric02:78

g BookGeneric02:78
usemtl Material.000001

v 6.5700454711914063 -9.9548625946044922 -1.1503462791442871
v 6.5700669288635254 9.95477294921875 -1.1503462791442871
v -5.8286585807800293 -9.9548511505126953 -1.1503458023071289
v -5.8286585807800293 9.9548139572143555 -1.1503458023071289
v -6.0756006240844727 -9.9548492431640625 0.75277423858642578
v -5.8286638259887695 -9.9548511505126953 1.1514929533004761
v -6.3863239288330078 -9.9548492431640625 0.82438337802886963
v -5.9410562515258789 -9.9548501968383789 1.4486998319625854
v -6.0755939483642578 -9.9548492431640625 -0.75277698040008545
v -6.3863162994384766 -9.9548492431640625 -0.8243861198425293
v -5.8286585807800293 -9.9548511505126953 -1.1503458023071289
v -5.9410505294799805 -9.9548511505126953 -1.448696494102478
v 6.5700454711914063 -9.9548625946044922 -1.1503462791442871
v 6.5700454711914063 -9.9548635482788086 -1.4486968517303467
v 6.5700669288635254 9.95477294921875 -1.1503462791442871
v 6.5700669288635254 9.9547719955444336 -1.4486968517303467
v -5.8286585807800293 9.9548139572143555 -1.1503458023071289
v 6.5700669288635254 9.95477294921875 -1.1503462791442871
v -5.9410295486450195 9.9548263549804688 -1.4486963748931885
v -5.9410505294799805 -9.9548511505126953 -1.448696494102478
v 6.5700454711914063 -9.9548625946044922 -1.1503462791442871
v -5.8286585807800293 -9.9548511505126953 -1.1503458023071289
v -5.2122578620910645 9.5067625045776367 0.54035437107086182
v 5.8511743545532227 9.5067577362060547 0.54035437107086182
v -5.2122578620910645 9.5067625045776367 -0.42675209045410156
v 5.8511743545532227 9.5067577362060547 -0.42675209045410156
v 6.0295495986938477 9.7586784362792969 1.1514929533004761
v -5.8286604881286621 9.7586860656738281 1.1514929533004761
v -6.3477640151977539 9.506770133972168 0.54035437107086182
v -6.3477640151977539 9.506770133972168 -0.42675209045410156
v -5.8286552429199219 9.7586860656738281 -1.1503448486328125
v 6.0295495986938477 9.7586784362792969 -1.1503448486328125
v 5.8511524200439453 -9.62677001953125 0.54035389423370361
v -5.2122578620910645 -9.6267585754394531 0.54035389423370361
v 5.8511524200439453 -9.62677001953125 -0.42675220966339111
v -5.2122578620910645 -9.6267585754394531 -0.42675220966339111
v 6.0295276641845703 -9.7816219329833984 -1.1503448486328125
v -5.8286657333374023 -9.7816143035888672 -1.1503448486328125
v -6.3477859497070313 -9.6267585754394531 -0.42675220966339111
v -6.3477859497070313 -9.6267585754394531 0.54035389423370361
v -5.8286709785461426 -9.7816143035888672 1.1514929533004761
v 6.0295276641845703 -9.7816219329833984 1.1514929533004761
v -6.3863162994384766 -9.9548492431640625 -0.8243861198425293
v -6.0755939483642578 -9.9548492431640625 -0.75277698040008545
v -6.5657424926757813 -9.9548492431640625 0
v -6.2442378997802734 -9.9548492431640625 0
v -6.0756006240844727 -9.9548492431640625 0.75277423858642578
v -6.3863239288330078 -9.9548492431640625 0.82438337802886963
v 6.5700445175170898 -9.954864501953125 1.1514924764633179
v 6.5700445175170898 -9.9548635482788086 1.4486998319625854
v -5.8286638259887695 -9.9548511505126953 1.1514929533004761
v -5.9410562515258789 -9.9548501968383789 1.4486998319625854
v 6.5700650215148926 9.9547710418701172 1.4486998319625854
v 6.5700445175170898 -9.954864501953125 1.1514924764633179
v 6.5700650215148926 9.9547700881958008 1.1514924764633179
v -5.9410295486450195 9.9548263549804688 -1.4486963748931885
v -5.9410505294799805 -9.9548511505126953 -1.448696494102478
v -6.3862957954406738 9.9548702239990234 -0.82438558340072632
v -6.3863162994384766 -9.9548492431640625 -0.8243861198425293
v -6.5657224655151367 9.9548702239990234 0
v -6.5657424926757813 -9.9548492431640625 0
v -6.3863239288330078 -9.9548492431640625 0.82438337802886963
v -6.3863029479980469 9.9548702239990234 0.82438278198242188
v -5.9410347938537598 9.9548263549804688 1.4486998319625854
v -5.8286638259887695 9.9548110961914063 1.1514929533004761
v 6.5700650215148926 9.9547700881958008 1.1514924764633179
v 6.0295495986938477 9.7586784362792969 -1.1503448486328125
v 5.8511743545532227 9.5067577362060547 -0.42675209045410156
v 6.0295276641845703 -9.7816219329833984 -1.1503448486328125
v 5.8511524200439453 -9.62677001953125 -0.42675220966339111
v 5.8511743545532227 9.5067577362060547 0.54035437107086182
v 5.8511524200439453 -9.62677001953125 0.54035389423370361
v 6.0295495986938477 9.7586784362792969 1.1514929533004761
v 6.0295276641845703 -9.7816219329833984 1.1514929533004761
v -5.8286585807800293 9.9548139572143555 -1.1503458023071289
v -5.9410295486450195 9.9548263549804688 -1.4486963748931885
v -6.0755729675292969 9.9548702239990234 -0.7527763843536377
v -6.3862957954406738 9.9548702239990234 -0.82438558340072632
v -6.2442164421081543 9.9548702239990234 0
v -6.5657224655151367 9.9548702239990234 0
v -6.3863029479980469 9.9548702239990234 0.82438278198242188
v -6.0755796432495117 9.9548702239990234 0.75277364253997803
v -5.9410347938537598 9.9548263549804688 1.4486998319625854
v -5.8286638259887695 9.9548110961914063 1.1514929533004761
v -5.8286585807800293 -9.9548511505126953 -1.1503458023071289
v -5.8286585807800293 9.9548139572143555 -1.1503458023071289
v -6.0755939483642578 -9.9548492431640625 -0.75277698040008545
v -6.0755729675292969 9.9548702239990234 -0.7527763843536377
v -6.2442378997802734 -9.9548492431640625 0
v -6.2442164421081543 9.9548702239990234 0
v -6.0755796432495117 9.9548702239990234 0.75277364253997803
v -6.0756006240844727 -9.9548492431640625 0.75277423858642578
v -5.8286638259887695 9.9548110961914063 1.1514929533004761
v -5.8286638259887695 -9.9548511505126953 1.1514929533004761
v 6.5700650215148926 9.9547700881958008 1.1514924764633179
v 6.5700445175170898 -9.954864501953125 1.1514924764633179
vt 0.98908138275146484 0.51046591997146606
vt 0.98908138275146484 0.99134868383407593
vt 0.68825435638427734 0.51046556234359741
vt 0.68825435638427734 0.99134999513626099
vt 0.66626787185668945 0.58757573366165161
vt 0.67223227024078369 0.59720605611801147
vt 0.65876293182373047 0.58930528163909912
vt 0.6695176362991333 0.60438454151153564
vt 0.66626811027526855 0.5512116551399231
vt 0.65876317024230957 0.54948204755783081
vt 0.67223238945007324 0.54160910844802856
vt 0.66951775550842285 0.53440290689468384
vt 0.99628734588623047 0.51046633720397949
vt 0.98908138275146484 0.51046591997146606
vt 0.99628734588623047 0.99134910106658936
vt 0.98908138275146484 0.99134904146194458
vt 0.69096899032592773 0.99855655431747437
vt 0.98908138275146484 0.99855512380599976
vt 0.68825507164001465 0.99135035276412964
vt 0.68825435638427734 0.51046639680862427
vt 0.98908138275146484 0.50325983762741089
vt 0.69096922874450684 0.50326031446456909
vt 0.51728415489196777 0.79566818475723267
vt 0.51728415489196777 0.51499158143997192
vt 0.54181933403015137 0.79566818475723267
vt 0.54181933403015137 0.51499158143997192
vt 0.50177979469299316 0.51046627759933472
vt 0.50177979469299316 0.8113061785697937
vt 0.51728415489196777 0.82447570562362671
vt 0.54181933403015137 0.82447570562362671
vt 0.56017684936523438 0.81130605936050415
vt 0.56017684936523438 0.51046627759933472
vt 0.51728403568267822 0.98682504892349243
vt 0.51728403568267822 0.70614892244338989
vt 0.54181921482086182 0.98682504892349243
vt 0.54181945323944092 0.70614892244338989
vt 0.56017673015594482 0.99135035276412964
vt 0.56017673015594482 0.69051080942153931
vt 0.54181945323944092 0.67734092473983765
vt 0.51728403568267822 0.67734092473983765
vt 0.50177979469299316 0.69051069021224976
vt 0.50177979469299316 0.99135035276412964
vt 0.65876317024230957 0.54948204755783081
vt 0.66626811027526855 0.5512116551399231
vt 0.65442943572998047 0.56939369440078735
vt 0.66219472885131836 0.56939369440078735
vt 0.66626787185668945 0.58757573366165161
vt 0.65876293182373047 0.58930528163909912
vt 0.98908138275146484 0.50328743457794189
vt 0.98908138275146484 0.51046591997146606
vt 0.69096875190734863 0.50328779220581055
vt 0.68825417757034302 0.51046627759933472
vt 0.98908138275146484 0.99134892225265503
vt 0.99625980854034424 0.51046591997146606
vt 0.99625980854034424 0.99134892225265503
vt 0.61827254295349121 0.99135035276412964
vt 0.61827248334884644 0.51046627759933472
vt 0.63335168361663818 0.9913514256477356
vt 0.63335156440734863 0.51046627759933472
vt 0.65326327085494995 0.9913514256477356
vt 0.65326321125030518 0.51046639680862427
vt 0.67317485809326172 0.51046627759933472
vt 0.67317485809326172 0.9913514256477356
vt 0.68825417757034302 0.99135035276412964
vt 0.69093877077102661 0.99852889776229858
vt 0.98908138275146484 0.99852746725082397
vt 0.56017684936523438 0.99135035276412964
vt 0.54181945323944092 0.98495906591415405
vt 0.56017684936523438 0.51046627759933472
vt 0.54181945323944092 0.51439487934112549
vt 0.51728415489196777 0.98495906591415405
vt 0.51728415489196777 0.51439487934112549
vt 0.50177979469299316 0.99135035276412964
vt 0.50177979469299316 0.51046627759933472
vt 0.64326488971710205 0.54160910844802856
vt 0.64055085182189941 0.53440290689468384
vt 0.63730120658874512 0.5512116551399231
vt 0.62979626655578613 0.54948204755783081
vt 0.63322782516479492 0.56939369440078735
vt 0.62546241283416748 0.56939369440078735
vt 0.62979602813720703 0.58930528163909912
vt 0.63730096817016602 0.58757573366165161
vt 0.64058017730712891 0.60438454151153564
vt 0.6432647705078125 0.59720605611801147
vt 0.63265717029571533 0.51046627759933472
vt 0.63265717029571533 0.99134987592697144
vt 0.64225971698760986 0.51046627759933472
vt 0.64225971698760986 0.99135130643844604
vt 0.66044187545776367 0.51046627759933472
vt 0.66044187545776367 0.99135130643844604
vt 0.67862379550933838 0.99135130643844604
vt 0.67862379550933838 0.51046627759933472
vt 0.68825411796569824 0.99134987592697144
vt 0.68825411796569824 0.51046627759933472
vt 0.98908138275146484 0.99134892225265503
vt 0.98908138275146484 0.51046591997146606
vn 0.5773499608039856 -0.57734966278076172 0.57735121250152588
vn 0.57735127210617065 0.57734960317611694 0.57734990119934082
vn 0.26785844564437866 -0.83439850807189941 0.48169597983360291
vn 0.26796063780784607 0.83437377214431763 0.4816819429397583
vn 0.61604350805282593 -0.7465202808380127 -0.25139188766479492
vn 0.26804402470588684 -0.83456921577453613 -0.48129686713218689
vn -0.68328315019607544 -0.66449266672134399 0.30261129140853882
vn -0.36031070351600647 -0.61710941791534424 0.69953709840774536
vn 0.61571604013442993 -0.74667823314666748 0.25172474980354309
vn -0.68328112363815308 -0.66449326276779175 -0.30261462926864624
vn 0.26785844564437866 -0.83439850807189941 0.48169597983360291
vn -0.36030995845794678 -0.61711037158966064 -0.69953668117523193
vn 0.5773499608039856 -0.57734966278076172 0.57735121250152588
vn 0.57734912633895874 -0.57735204696655273 -0.57734966278076172
vn 0.57735127210617065 0.57734960317611694 0.57734990119934082
vn 0.57735192775726318 0.57734763622283936 -0.57735127210617065
vn 0.26796063780784607 0.83437377214431763 0.4816819429397583
vn 0.57735127210617065 0.57734960317611694 0.57734990119934082
vn -0.36029130220413208 0.61711204051971436 -0.69954478740692139
vn -0.36030995845794678 -0.61711037158966064 -0.69953668117523193
vn 0.5773499608039856 -0.57734966278076172 0.57735121250152588
vn 0.26785844564437866 -0.83439850807189941 0.48169597983360291
vn 2.7990211037831614e-06 0.98095118999481201 -0.19425423443317413
vn 5.2595459010262857e-07 0.9778590202331543 -0.20926462113857269
vn 2.8755471248587128e-06 0.98600214719772339 0.16673257946968079
vn 5.2877015832564211e-07 0.9840240478515625 0.17803564667701721
vn 5.9482960068635293e-07 0.92453128099441528 -0.3811061680316925
vn 4.0845734474714845e-06 0.92453128099441528 -0.38110610842704773
vn 6.6510242504591588e-06 0.98989230394363403 -0.14182111620903015
vn 6.6639827309700195e-06 0.99182099103927612 0.12763676047325134
vn 3.9026081140036695e-06 0.94440096616744995 0.32879596948623657
vn 6.0761374243156752e-07 0.94440102577209473 0.32879582047462463
vn -8.2475344242993742e-07 -0.99101638793945313 -0.13374064862728119
vn -6.3772830571906525e-07 -0.99231159687042236 -0.12376490235328674
vn -8.2932831446669297e-07 -0.99364250898361206 0.11258137971162796
vn -6.2676991774424096e-07 -0.99444901943206787 0.10521980375051498
vn -6.2914057252783095e-07 -0.9778587818145752 0.20926579833030701
vn -3.950138989239349e-07 -0.97785764932632446 0.20927102863788605
vn 0 -0.99681490659713745 0.079749628901481628
vn 0 -0.99603599309921265 -0.088951066136360168
vn -3.4447236885171151e-07 -0.96936464309692383 -0.24562622606754303
vn -6.2367621467274148e-07 -0.96936613321304321 -0.24562019109725952
vn -0.68328112363815308 -0.66449326276779175 -0.30261462926864624
vn 0.61571604013442993 -0.74667823314666748 0.25172474980354309
vn -0.74930459260940552 -0.66222554445266724 -3.0485002753266599e-06
vn 0.65018057823181152 -0.75977975130081177 2.487797473804676e-06
vn 0.61604350805282593 -0.7465202808380127 -0.25139188766479492
vn -0.68328315019607544 -0.66449266672134399 0.30261129140853882
vn 0.57734948396682739 -0.57735186815261841 -0.57734942436218262
vn 0.57734984159469604 -0.57734984159469604 0.5773511528968811
vn 0.26804402470588684 -0.83456921577453613 -0.48129686713218689
vn -0.36031070351600647 -0.61710941791534424 0.69953709840774536
vn 0.57735162973403931 0.57734936475753784 0.57734984159469604
vn 0.57734948396682739 -0.57735186815261841 -0.57734942436218262
vn 0.57735162973403931 0.57734793424606323 -0.57735121250152588
vn -0.36029130220413208 0.61711204051971436 -0.69954478740692139
vn -0.36030995845794678 -0.61711037158966064 -0.69953668117523193
vn -0.68326973915100098 0.66449934244155884 -0.30262693762779236
vn -0.68328112363815308 -0.66449326276779175 -0.30261462926864624
vn -0.74930411577224731 0.66222602128982544 -2.8305432806519093e-06
vn -0.74930459260940552 -0.66222554445266724 -3.0485002753266599e-06
vn -0.68328315019607544 -0.66449266672134399 0.30261129140853882
vn -0.68327152729034424 0.66449910402297974 0.30262342095375061
vn -0.36029061675071716 0.61711430549621582 0.69954311847686768
vn 0.26815390586853027 0.83453923463821411 -0.48128765821456909
vn 0.57735162973403931 0.57734793424606323 -0.57735121250152588
vn 0.97093391418457031 -1.089899342332501e-06 0.23934775590896606
vn 0.99126607179641724 -1.123888523579808e-06 0.13187730312347412
vn 0.97093373537063599 -1.1138640729768667e-06 0.23934836685657501
vn 0.99178320169448853 -1.1377685495972401e-06 0.12793008983135223
vn 0.98765373229980469 -1.1283336789347231e-06 -0.15665267407894135
vn 0.98845767974853516 -1.120928573072888e-06 -0.15149733424186707
vn 0.95994669198989868 -1.0930540383924381e-06 -0.28018268942832947
vn 0.95994657278060913 -1.0775656846817583e-06 -0.28018316626548767
vn 0.26796063780784607 0.83437377214431763 0.4816819429397583
vn -0.36029130220413208 0.61711204051971436 -0.69954478740692139
vn 0.61573022603988647 0.74668151140213013 0.25168025493621826
vn -0.68326973915100098 0.66449934244155884 -0.30262693762779236
vn 0.65018141269683838 0.75977903604507446 2.4935595774877584e-06
vn -0.74930411577224731 0.66222602128982544 -2.8305432806519093e-06
vn -0.68327152729034424 0.66449910402297974 0.30262342095375061
vn 0.61605775356292725 0.74652367830276489 -0.25134694576263428
vn -0.36029061675071716 0.61711430549621582 0.69954311847686768
vn 0.26815390586853027 0.83453923463821411 -0.48128765821456909
vn 0.26785844564437866 -0.83439850807189941 0.48169597983360291
vn 0.26796063780784607 0.83437377214431763 0.4816819429397583
vn 0.61571604013442993 -0.74667823314666748 0.25172474980354309
vn 0.61573022603988647 0.74668151140213013 0.25168025493621826
vn 0.65018057823181152 -0.75977975130081177 2.487797473804676e-06
vn 0.65018141269683838 0.75977903604507446 2.4935595774877584e-06
vn 0.61605775356292725 0.74652367830276489 -0.25134694576263428
vn 0.61604350805282593 -0.7465202808380127 -0.25139188766479492
vn 0.26815390586853027 0.83453923463821411 -0.48128765821456909
vn 0.26804402470588684 -0.83456921577453613 -0.48129686713218689
vn 0.57735162973403931 0.57734793424606323 -0.57735121250152588
vn 0.57734948396682739 -0.57735186815261841 -0.57734942436218262
f 1/1/1 2/2/2 3/3/3
f 2/2/2 4/4/4 3/3/3
f 5/5/5 6/6/6 7/7/7
f 6/6/6 8/8/8 7/7/7
f 9/9/9 10/10/10 11/11/11
f 10/10/10 12/12/12 11/11/11
f 13/13/13 14/14/14 15/15/15
f 14/14/14 16/16/16 15/15/15
f 17/17/17 18/18/18 19/19/19
f 18/18/18 16/16/16 19/19/19
f 19/19/19 16/16/16 20/20/20
f 16/16/16 14/14/14 20/20/20
f 14/14/14 21/21/21 20/20/20
f 20/20/20 21/21/21 22/22/22
f 23/23/23 24/24/24 25/25/25
f 24/24/24 26/26/26 25/25/25
f 27/27/27 24/24/24 28/28/28
f 24/24/24 23/23/23 28/28/28
f 28/28/28 23/23/23 29/29/29
f 29/29/29 23/23/23 30/30/30
f 23/23/23 25/25/25 30/30/30
f 30/30/30 25/25/25 31/31/31
f 25/25/25 26/26/26 31/31/31
f 31/31/31 26/26/26 32/32/32
f 33/33/33 34/34/34 35/35/35
f 34/34/34 36/36/36 35/35/35
f 37/37/37 35/35/35 38/38/38
f 35/35/35 36/36/36 38/38/38
f 38/38/38 36/36/36 39/39/39
f 39/39/39 36/36/36 40/40/40
f 36/36/36 34/34/34 40/40/40
f 40/40/40 34/34/34 41/41/41
f 34/34/34 33/33/33 41/41/41
f 41/41/41 33/33/33 42/42/42
f 43/43/43 44/44/44 45/45/45
f 44/44/44 46/46/46 45/45/45
f 46/46/46 47/47/47 45/45/45
f 45/45/45 47/47/47 48/48/48
f 49/49/49 50/50/50 51/51/51
f 51/51/51 50/50/50 52/52/52
f 52/52/52 50/50/50 53/53/53
f 50/50/50 54/54/54 53/53/53
f 53/53/53 54/54/54 55/55/55
f 56/56/56 57/57/57 58/58/58
f 57/57/57 59/59/59 58/58/58
f 58/58/58 59/59/59 60/60/60
f 59/59/59 61/61/61 60/60/60
f 61/61/61 62/62/62 60/60/60
f 60/60/60 62/62/62 63/63/63
f 62/62/62 52/52/52 63/63/63
f 63/63/63 52/52/52 64/64/64
f 52/52/52 53/53/53 64/64/64
f 64/64/64 53/53/53 65/65/65
f 53/53/53 66/66/66 65/65/65
f 67/67/67 68/68/68 69/69/69
f 69/69/69 68/68/68 70/70/70
f 68/68/68 71/71/71 70/70/70
f 70/70/70 71/71/71 72/72/72
f 71/71/71 73/73/73 72/72/72
f 72/72/72 73/73/73 74/74/74
f 75/75/75 76/76/76 77/77/77
f 76/76/76 78/78/78 77/77/77
f 77/77/77 78/78/78 79/79/79
f 78/78/78 80/80/80 79/79/79
f 80/80/80 81/81/81 79/79/79
f 79/79/79 81/81/81 82/82/82
f 81/81/81 83/83/83 82/82/82
f 82/82/82 83/83/83 84/84/84
f 85/85/85 86/86/86 87/87/87
f 86/86/86 88/88/88 87/87/87
f 87/87/87 88/88/88 89/89/89
f 88/88/88 90/90/90 89/89/89
f 90/90/90 91/91/91 89/89/89
f 89/89/89 91/91/91 92/92/92
f 91/91/91 93/93/93 92/92/92
f 92/92/92 93/93/93 94/94/94
f 93/93/93 95/95/95 94/94/94
f 94/94/94 95/95/95 96/96/96
